<mxfile host="app.diagrams.net" modified="2024-03-07T16:32:08.294Z" agent="Mozilla/5.0 (Macintosh; Intel Mac OS X 10_15_7) AppleWebKit/537.36 (KHTML, like Gecko) Chrome/122.0.0.0 Safari/537.36" etag="ZratjNZPt57-CJ_ne8GT" version="24.0.0" type="github">
  <diagram name="Page-1" id="stp3hUiWKFvUIHmepx1J">
    <mxGraphModel dx="1757" dy="835" grid="1" gridSize="10" guides="1" tooltips="1" connect="1" arrows="1" fold="1" page="1" pageScale="1" pageWidth="2000" pageHeight="1600" math="0" shadow="0">
      <root>
        <mxCell id="0" />
        <mxCell id="1" parent="0" />
        <mxCell id="iOjBEveg9QLdjkTajvrg-57" value="" style="rounded=0;whiteSpace=wrap;html=1;sketch=1;hachureGap=4;jiggle=2;curveFitting=1;" parent="1" vertex="1">
          <mxGeometry x="1920" y="375" width="520" height="110" as="geometry" />
        </mxCell>
        <mxCell id="iOjBEveg9QLdjkTajvrg-39" value="" style="rounded=0;whiteSpace=wrap;html=1;sketch=1;hachureGap=4;jiggle=2;curveFitting=1;" parent="1" vertex="1">
          <mxGeometry x="30" y="30" width="750" height="750" as="geometry" />
        </mxCell>
        <mxCell id="iOjBEveg9QLdjkTajvrg-9" value="" style="edgeStyle=orthogonalEdgeStyle;rounded=0;sketch=1;hachureGap=4;jiggle=2;curveFitting=1;orthogonalLoop=1;jettySize=auto;html=1;" parent="1" source="iOjBEveg9QLdjkTajvrg-1" target="iOjBEveg9QLdjkTajvrg-8" edge="1">
          <mxGeometry relative="1" as="geometry" />
        </mxCell>
        <mxCell id="iOjBEveg9QLdjkTajvrg-13" style="edgeStyle=orthogonalEdgeStyle;rounded=0;sketch=1;hachureGap=4;jiggle=2;curveFitting=1;orthogonalLoop=1;jettySize=auto;html=1;exitX=0.5;exitY=1;exitDx=0;exitDy=0;" parent="1" source="iOjBEveg9QLdjkTajvrg-1" target="iOjBEveg9QLdjkTajvrg-2" edge="1">
          <mxGeometry relative="1" as="geometry" />
        </mxCell>
        <mxCell id="iOjBEveg9QLdjkTajvrg-37" style="edgeStyle=orthogonalEdgeStyle;rounded=0;sketch=1;hachureGap=4;jiggle=2;curveFitting=1;orthogonalLoop=1;jettySize=auto;html=1;entryX=0.5;entryY=0;entryDx=0;entryDy=0;" parent="1" source="iOjBEveg9QLdjkTajvrg-1" target="iOjBEveg9QLdjkTajvrg-38" edge="1">
          <mxGeometry relative="1" as="geometry">
            <mxPoint x="230" y="560" as="targetPoint" />
          </mxGeometry>
        </mxCell>
        <mxCell id="iOjBEveg9QLdjkTajvrg-1" value="&lt;div&gt;Youtube&lt;/div&gt;&lt;div&gt;Longform Videos&lt;/div&gt;" style="rounded=0;whiteSpace=wrap;html=1;sketch=1;hachureGap=4;jiggle=2;curveFitting=1;" parent="1" vertex="1">
          <mxGeometry x="140" y="400" width="520" height="60" as="geometry" />
        </mxCell>
        <mxCell id="iOjBEveg9QLdjkTajvrg-14" value="" style="edgeStyle=orthogonalEdgeStyle;rounded=0;sketch=1;hachureGap=4;jiggle=2;curveFitting=1;orthogonalLoop=1;jettySize=auto;html=1;" parent="1" source="iOjBEveg9QLdjkTajvrg-2" target="iOjBEveg9QLdjkTajvrg-4" edge="1">
          <mxGeometry relative="1" as="geometry" />
        </mxCell>
        <mxCell id="iOjBEveg9QLdjkTajvrg-2" value="Shortform" style="rounded=0;whiteSpace=wrap;html=1;sketch=1;hachureGap=4;jiggle=2;curveFitting=1;" parent="1" vertex="1">
          <mxGeometry x="550" y="560" width="120" height="60" as="geometry" />
        </mxCell>
        <mxCell id="iOjBEveg9QLdjkTajvrg-4" value="Instagram&lt;div&gt;Reels&lt;/div&gt;" style="rounded=0;whiteSpace=wrap;html=1;sketch=1;hachureGap=4;jiggle=2;curveFitting=1;" parent="1" vertex="1">
          <mxGeometry x="550" y="690" width="120" height="60" as="geometry" />
        </mxCell>
        <mxCell id="iOjBEveg9QLdjkTajvrg-33" style="edgeStyle=orthogonalEdgeStyle;rounded=0;sketch=1;hachureGap=4;jiggle=2;curveFitting=1;orthogonalLoop=1;jettySize=auto;html=1;entryX=0.5;entryY=0;entryDx=0;entryDy=0;" parent="1" source="iOjBEveg9QLdjkTajvrg-6" target="iOjBEveg9QLdjkTajvrg-1" edge="1">
          <mxGeometry relative="1" as="geometry" />
        </mxCell>
        <mxCell id="iOjBEveg9QLdjkTajvrg-6" value="Twitter" style="rounded=0;whiteSpace=wrap;html=1;sketch=1;hachureGap=4;jiggle=2;curveFitting=1;" parent="1" vertex="1">
          <mxGeometry x="220" y="270" width="120" height="60" as="geometry" />
        </mxCell>
        <mxCell id="iOjBEveg9QLdjkTajvrg-8" value="Golden Visa" style="rounded=0;whiteSpace=wrap;html=1;sketch=1;hachureGap=4;jiggle=2;curveFitting=1;" parent="1" vertex="1">
          <mxGeometry x="360" y="560" width="120" height="60" as="geometry" />
        </mxCell>
        <mxCell id="iOjBEveg9QLdjkTajvrg-35" style="edgeStyle=orthogonalEdgeStyle;rounded=0;sketch=1;hachureGap=4;jiggle=2;curveFitting=1;orthogonalLoop=1;jettySize=auto;html=1;" parent="1" source="iOjBEveg9QLdjkTajvrg-10" edge="1">
          <mxGeometry relative="1" as="geometry">
            <mxPoint x="420" y="400" as="targetPoint" />
            <Array as="points">
              <mxPoint x="630" y="370" />
              <mxPoint x="421" y="370" />
            </Array>
          </mxGeometry>
        </mxCell>
        <mxCell id="iOjBEveg9QLdjkTajvrg-10" value="Instagram Posts" style="rounded=0;whiteSpace=wrap;html=1;sketch=1;hachureGap=4;jiggle=2;curveFitting=1;" parent="1" vertex="1">
          <mxGeometry x="590" y="270" width="120" height="60" as="geometry" />
        </mxCell>
        <mxCell id="iOjBEveg9QLdjkTajvrg-23" value="" style="edgeStyle=orthogonalEdgeStyle;rounded=0;sketch=1;hachureGap=4;jiggle=2;curveFitting=1;orthogonalLoop=1;jettySize=auto;html=1;entryX=0.5;entryY=0;entryDx=0;entryDy=0;" parent="1" source="iOjBEveg9QLdjkTajvrg-15" target="iOjBEveg9QLdjkTajvrg-6" edge="1">
          <mxGeometry relative="1" as="geometry">
            <mxPoint x="277.5" y="205" as="targetPoint" />
          </mxGeometry>
        </mxCell>
        <mxCell id="iOjBEveg9QLdjkTajvrg-25" style="edgeStyle=orthogonalEdgeStyle;rounded=0;sketch=1;hachureGap=4;jiggle=2;curveFitting=1;orthogonalLoop=1;jettySize=auto;html=1;entryX=0.5;entryY=0;entryDx=0;entryDy=0;" parent="1" source="iOjBEveg9QLdjkTajvrg-15" target="iOjBEveg9QLdjkTajvrg-10" edge="1">
          <mxGeometry relative="1" as="geometry" />
        </mxCell>
        <mxCell id="iOjBEveg9QLdjkTajvrg-27" value="" style="edgeStyle=orthogonalEdgeStyle;rounded=0;sketch=1;hachureGap=4;jiggle=2;curveFitting=1;orthogonalLoop=1;jettySize=auto;html=1;" parent="1" source="iOjBEveg9QLdjkTajvrg-15" target="iOjBEveg9QLdjkTajvrg-26" edge="1">
          <mxGeometry relative="1" as="geometry" />
        </mxCell>
        <mxCell id="iOjBEveg9QLdjkTajvrg-29" value="" style="edgeStyle=orthogonalEdgeStyle;rounded=0;sketch=1;hachureGap=4;jiggle=2;curveFitting=1;orthogonalLoop=1;jettySize=auto;html=1;" parent="1" source="iOjBEveg9QLdjkTajvrg-15" target="iOjBEveg9QLdjkTajvrg-28" edge="1">
          <mxGeometry relative="1" as="geometry" />
        </mxCell>
        <mxCell id="iOjBEveg9QLdjkTajvrg-15" value="&lt;div&gt;&lt;b&gt;Editing &amp;amp; Scheduling&amp;nbsp;&lt;/b&gt;&lt;/div&gt;&lt;div&gt;Canva&lt;/div&gt;" style="rounded=0;whiteSpace=wrap;html=1;sketch=1;hachureGap=4;jiggle=2;curveFitting=1;" parent="1" vertex="1">
          <mxGeometry x="295" y="160" width="135" height="70" as="geometry" />
        </mxCell>
        <mxCell id="iOjBEveg9QLdjkTajvrg-20" value="" style="edgeStyle=orthogonalEdgeStyle;rounded=0;sketch=1;hachureGap=4;jiggle=2;curveFitting=1;orthogonalLoop=1;jettySize=auto;html=1;" parent="1" source="iOjBEveg9QLdjkTajvrg-18" target="iOjBEveg9QLdjkTajvrg-15" edge="1">
          <mxGeometry relative="1" as="geometry" />
        </mxCell>
        <mxCell id="iOjBEveg9QLdjkTajvrg-18" value="Raw Videos/&lt;div&gt;Pictures&lt;/div&gt;" style="whiteSpace=wrap;html=1;shape=mxgraph.basic.document;sketch=1;hachureGap=4;jiggle=2;curveFitting=1;" parent="1" vertex="1">
          <mxGeometry x="322.5" y="60" width="80" height="60" as="geometry" />
        </mxCell>
        <mxCell id="iOjBEveg9QLdjkTajvrg-34" style="edgeStyle=orthogonalEdgeStyle;rounded=0;sketch=1;hachureGap=4;jiggle=2;curveFitting=1;orthogonalLoop=1;jettySize=auto;html=1;" parent="1" source="iOjBEveg9QLdjkTajvrg-26" edge="1">
          <mxGeometry relative="1" as="geometry">
            <mxPoint x="420" y="390" as="targetPoint" />
          </mxGeometry>
        </mxCell>
        <mxCell id="iOjBEveg9QLdjkTajvrg-26" value="&lt;div&gt;Pinterest&lt;/div&gt;" style="rounded=0;whiteSpace=wrap;html=1;sketch=1;hachureGap=4;jiggle=2;curveFitting=1;" parent="1" vertex="1">
          <mxGeometry x="402.5" y="270" width="135" height="70" as="geometry" />
        </mxCell>
        <mxCell id="iOjBEveg9QLdjkTajvrg-32" style="edgeStyle=orthogonalEdgeStyle;rounded=0;sketch=1;hachureGap=4;jiggle=2;curveFitting=1;orthogonalLoop=1;jettySize=auto;html=1;" parent="1" source="iOjBEveg9QLdjkTajvrg-28" target="iOjBEveg9QLdjkTajvrg-1" edge="1">
          <mxGeometry relative="1" as="geometry" />
        </mxCell>
        <mxCell id="iOjBEveg9QLdjkTajvrg-28" value="&lt;div&gt;&lt;b&gt;Facebook&lt;/b&gt;&lt;/div&gt;&lt;div&gt;&lt;b&gt;Page&lt;/b&gt;&lt;/div&gt;" style="rounded=0;whiteSpace=wrap;html=1;sketch=1;hachureGap=4;jiggle=2;curveFitting=1;" parent="1" vertex="1">
          <mxGeometry x="50" y="270" width="135" height="70" as="geometry" />
        </mxCell>
        <mxCell id="iOjBEveg9QLdjkTajvrg-31" style="edgeStyle=orthogonalEdgeStyle;rounded=0;sketch=1;hachureGap=4;jiggle=2;curveFitting=1;orthogonalLoop=1;jettySize=auto;html=1;entryX=0.75;entryY=0;entryDx=0;entryDy=0;" parent="1" source="iOjBEveg9QLdjkTajvrg-30" target="iOjBEveg9QLdjkTajvrg-15" edge="1">
          <mxGeometry relative="1" as="geometry" />
        </mxCell>
        <mxCell id="iOjBEveg9QLdjkTajvrg-30" value="Qoutes" style="whiteSpace=wrap;html=1;shape=mxgraph.basic.document;sketch=1;hachureGap=4;jiggle=2;curveFitting=1;" parent="1" vertex="1">
          <mxGeometry x="430" y="60" width="80" height="60" as="geometry" />
        </mxCell>
        <mxCell id="iOjBEveg9QLdjkTajvrg-38" value="Newsletter" style="rounded=0;whiteSpace=wrap;html=1;sketch=1;hachureGap=4;jiggle=2;curveFitting=1;" parent="1" vertex="1">
          <mxGeometry x="170" y="560" width="120" height="60" as="geometry" />
        </mxCell>
        <mxCell id="iOjBEveg9QLdjkTajvrg-40" value="Videos" style="text;html=1;align=center;verticalAlign=middle;whiteSpace=wrap;rounded=0;" parent="1" vertex="1">
          <mxGeometry x="50" y="740" width="60" height="30" as="geometry" />
        </mxCell>
        <mxCell id="iOjBEveg9QLdjkTajvrg-43" value="" style="edgeStyle=orthogonalEdgeStyle;rounded=0;hachureGap=4;orthogonalLoop=1;jettySize=auto;html=1;flowAnimation=1;" parent="1" source="iOjBEveg9QLdjkTajvrg-41" target="iOjBEveg9QLdjkTajvrg-42" edge="1">
          <mxGeometry relative="1" as="geometry" />
        </mxCell>
        <mxCell id="iOjBEveg9QLdjkTajvrg-48" value="" style="edgeStyle=orthogonalEdgeStyle;rounded=0;hachureGap=4;orthogonalLoop=1;jettySize=auto;html=1;flowAnimation=1;" parent="1" source="iOjBEveg9QLdjkTajvrg-41" target="iOjBEveg9QLdjkTajvrg-47" edge="1">
          <mxGeometry relative="1" as="geometry" />
        </mxCell>
        <mxCell id="iOjBEveg9QLdjkTajvrg-41" value="Code" style="rounded=0;whiteSpace=wrap;html=1;sketch=1;hachureGap=4;jiggle=2;curveFitting=1;" parent="1" vertex="1">
          <mxGeometry x="1680" y="140" width="120" height="60" as="geometry" />
        </mxCell>
        <mxCell id="iOjBEveg9QLdjkTajvrg-61" value="" style="edgeStyle=orthogonalEdgeStyle;rounded=0;hachureGap=4;orthogonalLoop=1;jettySize=auto;html=1;entryX=0.108;entryY=0;entryDx=0;entryDy=0;entryPerimeter=0;flowAnimation=1;" parent="1" source="iOjBEveg9QLdjkTajvrg-42" target="iOjBEveg9QLdjkTajvrg-44" edge="1">
          <mxGeometry relative="1" as="geometry">
            <mxPoint x="1350" y="440" as="targetPoint" />
          </mxGeometry>
        </mxCell>
        <mxCell id="iOjBEveg9QLdjkTajvrg-68" value="" style="edgeStyle=orthogonalEdgeStyle;rounded=0;hachureGap=4;orthogonalLoop=1;jettySize=auto;html=1;flowAnimation=1;" parent="1" source="iOjBEveg9QLdjkTajvrg-42" target="iOjBEveg9QLdjkTajvrg-67" edge="1">
          <mxGeometry relative="1" as="geometry" />
        </mxCell>
        <mxCell id="iOjBEveg9QLdjkTajvrg-42" value="Reusable&lt;div&gt;Code&lt;div&gt;Snippets&lt;/div&gt;&lt;/div&gt;" style="rounded=0;whiteSpace=wrap;html=1;sketch=1;hachureGap=4;jiggle=2;curveFitting=1;" parent="1" vertex="1">
          <mxGeometry x="1290" y="270" width="120" height="60" as="geometry" />
        </mxCell>
        <mxCell id="iOjBEveg9QLdjkTajvrg-44" value="Software as a Service" style="rounded=0;whiteSpace=wrap;html=1;sketch=1;hachureGap=4;jiggle=2;curveFitting=1;" parent="1" vertex="1">
          <mxGeometry x="1220" y="580" width="1200" height="60" as="geometry" />
        </mxCell>
        <mxCell id="iOjBEveg9QLdjkTajvrg-50" value="" style="edgeStyle=orthogonalEdgeStyle;rounded=0;hachureGap=4;orthogonalLoop=1;jettySize=auto;html=1;flowAnimation=1;" parent="1" source="iOjBEveg9QLdjkTajvrg-47" target="iOjBEveg9QLdjkTajvrg-49" edge="1">
          <mxGeometry relative="1" as="geometry" />
        </mxCell>
        <mxCell id="iOjBEveg9QLdjkTajvrg-52" style="edgeStyle=orthogonalEdgeStyle;rounded=0;hachureGap=4;orthogonalLoop=1;jettySize=auto;html=1;entryX=0.5;entryY=0;entryDx=0;entryDy=0;flowAnimation=1;" parent="1" source="iOjBEveg9QLdjkTajvrg-47" target="iOjBEveg9QLdjkTajvrg-51" edge="1">
          <mxGeometry relative="1" as="geometry" />
        </mxCell>
        <mxCell id="iOjBEveg9QLdjkTajvrg-54" value="" style="edgeStyle=orthogonalEdgeStyle;rounded=0;hachureGap=4;orthogonalLoop=1;jettySize=auto;html=1;flowAnimation=1;" parent="1" source="iOjBEveg9QLdjkTajvrg-47" target="iOjBEveg9QLdjkTajvrg-53" edge="1">
          <mxGeometry relative="1" as="geometry" />
        </mxCell>
        <mxCell id="iOjBEveg9QLdjkTajvrg-63" style="edgeStyle=orthogonalEdgeStyle;rounded=0;hachureGap=4;orthogonalLoop=1;jettySize=auto;html=1;entryX=0.5;entryY=0;entryDx=0;entryDy=0;flowAnimation=1;" parent="1" source="iOjBEveg9QLdjkTajvrg-47" target="iOjBEveg9QLdjkTajvrg-64" edge="1">
          <mxGeometry relative="1" as="geometry">
            <mxPoint x="1710" y="410" as="targetPoint" />
          </mxGeometry>
        </mxCell>
        <mxCell id="iOjBEveg9QLdjkTajvrg-47" value="Lessons Learned" style="rounded=0;whiteSpace=wrap;html=1;sketch=1;hachureGap=4;jiggle=2;curveFitting=1;" parent="1" vertex="1">
          <mxGeometry x="2120" y="260" width="120" height="60" as="geometry" />
        </mxCell>
        <mxCell id="iOjBEveg9QLdjkTajvrg-49" value="Medium.com" style="rounded=0;whiteSpace=wrap;html=1;sketch=1;hachureGap=4;jiggle=2;curveFitting=1;" parent="1" vertex="1">
          <mxGeometry x="1970" y="400" width="120" height="60" as="geometry" />
        </mxCell>
        <mxCell id="iOjBEveg9QLdjkTajvrg-51" value="Dev.to" style="rounded=0;whiteSpace=wrap;html=1;sketch=1;hachureGap=4;jiggle=2;curveFitting=1;" parent="1" vertex="1">
          <mxGeometry x="2120" y="400" width="120" height="60" as="geometry" />
        </mxCell>
        <mxCell id="iOjBEveg9QLdjkTajvrg-53" value="Personal Site" style="rounded=0;whiteSpace=wrap;html=1;sketch=1;hachureGap=4;jiggle=2;curveFitting=1;" parent="1" vertex="1">
          <mxGeometry x="2270" y="400" width="120" height="60" as="geometry" />
        </mxCell>
        <mxCell id="iOjBEveg9QLdjkTajvrg-59" value="SEO" style="text;html=1;align=center;verticalAlign=middle;whiteSpace=wrap;rounded=0;" parent="1" vertex="1">
          <mxGeometry x="2370" y="455" width="60" height="30" as="geometry" />
        </mxCell>
        <mxCell id="iOjBEveg9QLdjkTajvrg-75" value="" style="edgeStyle=orthogonalEdgeStyle;rounded=0;hachureGap=4;orthogonalLoop=1;jettySize=auto;html=1;entryX=0.606;entryY=-0.067;entryDx=0;entryDy=0;entryPerimeter=0;flowAnimation=1;" parent="1" source="iOjBEveg9QLdjkTajvrg-64" target="iOjBEveg9QLdjkTajvrg-44" edge="1">
          <mxGeometry relative="1" as="geometry">
            <mxPoint x="1762" y="571" as="targetPoint" />
          </mxGeometry>
        </mxCell>
        <mxCell id="iOjBEveg9QLdjkTajvrg-64" value="Youtube&amp;nbsp;&lt;div&gt;Tutorials&lt;/div&gt;&lt;div&gt;(Devlogs)&lt;/div&gt;" style="rounded=0;whiteSpace=wrap;html=1;sketch=1;hachureGap=4;jiggle=2;curveFitting=1;" parent="1" vertex="1">
          <mxGeometry x="1790" y="400" width="120" height="60" as="geometry" />
        </mxCell>
        <mxCell id="iOjBEveg9QLdjkTajvrg-70" value="" style="edgeStyle=orthogonalEdgeStyle;rounded=0;hachureGap=4;orthogonalLoop=1;jettySize=auto;html=1;entryX=0.297;entryY=-0.05;entryDx=0;entryDy=0;entryPerimeter=0;flowAnimation=1;" parent="1" source="iOjBEveg9QLdjkTajvrg-67" target="iOjBEveg9QLdjkTajvrg-44" edge="1">
          <mxGeometry relative="1" as="geometry">
            <mxPoint x="1480" y="580" as="targetPoint" />
          </mxGeometry>
        </mxCell>
        <mxCell id="iOjBEveg9QLdjkTajvrg-67" value="Free Tools" style="whiteSpace=wrap;html=1;rounded=0;sketch=1;hachureGap=4;jiggle=2;curveFitting=1;" parent="1" vertex="1">
          <mxGeometry x="1520" y="400" width="120" height="60" as="geometry" />
        </mxCell>
        <mxCell id="iOjBEveg9QLdjkTajvrg-76" style="edgeStyle=orthogonalEdgeStyle;rounded=0;hachureGap=4;orthogonalLoop=1;jettySize=auto;html=1;entryX=0.798;entryY=0.033;entryDx=0;entryDy=0;entryPerimeter=0;flowAnimation=1;" parent="1" source="iOjBEveg9QLdjkTajvrg-57" target="iOjBEveg9QLdjkTajvrg-44" edge="1">
          <mxGeometry relative="1" as="geometry" />
        </mxCell>
        <mxCell id="iOjBEveg9QLdjkTajvrg-77" style="edgeStyle=orthogonalEdgeStyle;rounded=0;hachureGap=4;orthogonalLoop=1;jettySize=auto;html=1;entryX=0.434;entryY=-0.033;entryDx=0;entryDy=0;entryPerimeter=0;flowAnimation=1;" parent="1" source="iOjBEveg9QLdjkTajvrg-41" target="iOjBEveg9QLdjkTajvrg-44" edge="1">
          <mxGeometry relative="1" as="geometry" />
        </mxCell>
      </root>
    </mxGraphModel>
  </diagram>
</mxfile>
